<?xml version="1.0" encoding="utf-8"?>
<!-- Generator: Adobe Illustrator 23.0.2, SVG Export Plug-In . SVG Version: 6.00 Build 0)  -->
<svg version="1.1" id="Слой_1" xmlns="http://www.w3.org/2000/svg" xmlns:xlink="http://www.w3.org/1999/xlink" x="0px" y="0px"
	 viewBox="0 0 607.5 366.6" style="enable-background:new 0 0 607.5 366.6;" xml:space="preserve">
<style type="text/css">
	.st0{fill:url(#SVGID_1_);}
	.st1{fill:url(#SVGID_2_);}
	.st2{fill:url(#SVGID_3_);}
	.st3{fill:url(#SVGID_4_);}
	.st4{fill:url(#SVGID_5_);}
	.st5{fill:#AEBECC;}
	.st6{fill:#F0F0F0;}
	.st7{fill:#FFFFFF;}
	.st8{fill:url(#SVGID_6_);}
	.st9{fill:#757575;}
	.st10{fill:#DFE1E8;}
	.st11{fill:#EEF0F7;}
	.st12{fill:#3C4145;}
	.st13{fill:#EEA886;}
	.st14{fill:#E55353;}
	.st15{fill:#A77860;}
	.st16{fill:#BD4444;}
	.st17{fill:#D9C7C1;}
	.st18{fill:#EEA987;}
	.st19{fill:#E8734D;}
	.st20{fill:#C78D71;}
	.st21{fill:#EDDAD3;}
	.st22{fill:#5073AB;}
	.st23{fill:#323657;}
	.st24{fill:#F5F7FF;}
	.st25{fill:#949494;}
	.st26{fill:#FFBF55;}
	.st27{fill:#F3F3F3;}
	.st28{fill:#131C24;}
	.st29{fill:#4F4946;}
	.st30{fill:#293E4F;}
	.st31{fill:#1A2833;}
	.st32{fill:#385369;}
	.st33{fill:#3E5E78;}
	.st34{fill:#263947;}
	.st35{fill:#706865;}
	.st36{fill:#BDAFAA;}
	.st37{fill:#B5DEFF;}
	.st38{fill:#E2D2CA;}
	.st39{fill:#CCBDB7;}
	.st40{fill:#4667A8;}
	.st41{fill:#B59074;}
	.st42{fill:#EAD8CF;}
	.st43{fill:#DA9B5B;}
	.st44{fill:#424773;}
	.st45{fill:#292C47;}
	.st46{fill:#3A3F47;}
	.st47{fill:#918783;}
	.st48{fill:#5E5854;}
	.st49{fill:#BFB2AC;}
	.st50{fill:#5F8BE3;}
	.st51{fill:#CECFD6;}
	.st52{fill:#59524F;}
	.st53{fill:#314875;}
	.st54{fill:#1D3B54;}
	.st55{fill:#DE9673;}
	.st56{fill:#EB4747;}
	.st57{fill:#754836;}
	.st58{fill:#DB9C7C;}
	.st59{fill:#4DA8F2;}
	.st60{fill:#EFAA88;}
	.st61{fill:#D88A51;}
	.st62{fill:url(#SVGID_7_);}
	.st63{fill:url(#SVGID_8_);}
</style>
<g>
	<linearGradient id="SVGID_1_" gradientUnits="userSpaceOnUse" x1="325.4541" y1="80.1792" x2="573.4746" y2="80.1792">
		<stop  offset="0" style="stop-color:#F0F4FF"/>
		<stop  offset="1" style="stop-color:#EFEBFF"/>
	</linearGradient>
	<path class="st0" d="M573.5,36.4c0,68.5-55.5,124-124,124c-68.5,0-124-55.5-124-124c0-12.6,1.9-24.9,5.4-36.4h237.2
		C571.6,11.5,573.5,23.7,573.5,36.4z"/>
	<linearGradient id="SVGID_2_" gradientUnits="userSpaceOnUse" x1="1.000000e-03" y1="183.2827" x2="435.9136" y2="183.2827">
		<stop  offset="0" style="stop-color:#9A5CFF"/>
		<stop  offset="1" style="stop-color:#7892FF"/>
	</linearGradient>
	<path class="st1" d="M435.9,366.6H0V0h76.2c0,0-34,63.4,39.5,87.8c73.5,24.4,102.6,26.3,120.1,112.9
		c16.4,81.3,127.1,58.3,178,111.2c3.4,3.5,6.4,7.3,9.2,11.5C432.7,337.9,436.3,352.5,435.9,366.6z"/>
	<g>
		<linearGradient id="SVGID_3_" gradientUnits="userSpaceOnUse" x1="63.7914" y1="183.2827" x2="464.0293" y2="183.2827">
			<stop  offset="0" style="stop-color:#9A5CFF"/>
			<stop  offset="1" style="stop-color:#7892FF"/>
		</linearGradient>
		<path class="st2" d="M450.3,328.2c-22.2-33.4-62.1-44.7-100.7-55.6c-47.5-13.5-92.4-26.2-102.8-77.6c-8.5-42-19.7-66.8-37.6-82.9
			c-17.5-15.8-41.2-23.4-74-34c-6.1-2-12.5-4-19.2-6.3c-24.4-8.1-40.3-21-47.2-38.4C63.9,21.9,64.1,9.9,65.8,0h-0.9
			c-1.7,10-1.8,22.1,2.9,33.8c7,17.6,23.1,30.7,47.8,38.9c6.8,2.2,13.1,4.3,19.3,6.3c32.7,10.5,56.3,18.2,73.7,33.8
			c17.7,16,28.9,40.6,37.3,82.4c4.7,23.4,17.2,40.9,38,53.7c18.6,11.4,41.4,17.8,65.4,24.6c38.4,10.9,78.2,22.1,100.2,55.2
			c7.9,11.9,12.5,24.6,13.6,37.8h0.9C462.9,353.1,458.3,340.3,450.3,328.2z"/>
	</g>
	<g>
		<g>
			<linearGradient id="SVGID_4_" gradientUnits="userSpaceOnUse" x1="266.3183" y1="106.5088" x2="320.8515" y2="106.5088">
				<stop  offset="0" style="stop-color:#FF9F55"/>
				<stop  offset="1" style="stop-color:#FFD255"/>
			</linearGradient>
			<path class="st3" d="M316.3,100.6c-0.6-2.1-1.4-4.2-2.5-6l2.5-3.8l-3.5-3.5l-3.5-3.5l-3.8,2.5c-1.9-1.1-3.9-1.9-6-2.5l-0.9-4.5
				h-5h-5l-0.9,4.5c-2.1,0.6-4.2,1.4-6,2.5l-3.8-2.5l-3.5,3.5l-3.5,3.5l2.5,3.8c-1.1,1.9-1.9,3.9-2.5,6l-4.5,0.9v5v5l4.5,0.9
				c0.6,2.1,1.4,4.2,2.5,6l-2.5,3.8l3.5,3.5l3.5,3.5l3.8-2.5c1.9,1.1,3.9,1.9,6,2.5l0.9,4.5h5h5l0.9-4.5c2.1-0.6,4.2-1.4,6-2.5
				l3.8,2.5l3.5-3.5l3.5-3.5l-2.5-3.8c1.1-1.9,1.9-3.9,2.5-6l4.5-0.9v-5v-5L316.3,100.6z M293.6,124c-9.7,0-17.5-7.8-17.5-17.5
				c0-9.7,7.8-17.5,17.5-17.5c9.7,0,17.5,7.8,17.5,17.5C311.1,116.2,303.2,124,293.6,124z"/>
		</g>
		<g>
			<linearGradient id="SVGID_5_" gradientUnits="userSpaceOnUse" x1="300.2236" y1="145.7685" x2="325.2246" y2="145.7685">
				<stop  offset="0" style="stop-color:#FF9F55"/>
				<stop  offset="1" style="stop-color:#FFD255"/>
			</linearGradient>
			<path class="st4" d="M323.2,143.1c-0.3-1-0.6-1.9-1.1-2.8l1.2-1.8l-1.6-1.6l-1.6-1.6l-1.8,1.2c-0.9-0.5-1.8-0.9-2.8-1.1l-0.4-2.1
				h-2.3h-2.3l-0.4,2.1c-1,0.3-1.9,0.6-2.8,1.1l-1.8-1.2l-1.6,1.6l-1.6,1.6l1.2,1.8c-0.5,0.9-0.9,1.8-1.1,2.8l-2.1,0.4v2.3v2.3
				l2.1,0.4c0.3,1,0.6,1.9,1.1,2.8l-1.2,1.8l1.6,1.6l1.6,1.6l1.8-1.2c0.9,0.5,1.8,0.9,2.8,1.1l0.4,2.1h2.3h2.3l0.4-2.1
				c1-0.3,1.9-0.6,2.8-1.1l1.8,1.2l1.6-1.6l1.6-1.6l-1.2-1.8c0.5-0.9,0.9-1.8,1.1-2.8l2.1-0.4v-2.3v-2.3L323.2,143.1z M312.7,153.8
				c-4.4,0-8-3.6-8-8c0-4.4,3.6-8,8-8c4.4,0,8,3.6,8,8C320.7,150.2,317.2,153.8,312.7,153.8z"/>
		</g>
		<g>
			
				<rect x="178.1" y="227.5" transform="matrix(-1 -1.224647e-16 1.224647e-16 -1 380.7666 529.623)" class="st5" width="24.6" height="74.6"/>
		</g>
		<g>
			<path class="st6" d="M95.1,263.4h190.5c6,0,10.8-4.8,10.8-10.8v-128c0-6-4.8-10.8-10.8-10.8H95.1c-6,0-10.8,4.8-10.8,10.8v128
				C84.4,258.6,89.2,263.4,95.1,263.4z"/>
		</g>
		<g>
			
				<rect x="92.7" y="97.9" transform="matrix(-1 -1.224647e-16 1.224647e-16 -1 380.7661 337.9326)" class="st7" width="195.4" height="142.1"/>
		</g>
		<g>
			<linearGradient id="SVGID_6_" gradientUnits="userSpaceOnUse" x1="92.6587" y1="106.5088" x2="288.1074" y2="106.5088">
				<stop  offset="0" style="stop-color:#FF9F55"/>
				<stop  offset="1" style="stop-color:#FFD255"/>
			</linearGradient>
			<polygon class="st8" points="92.7,115.1 288.1,115.1 288.1,97.9 92.7,97.9 			"/>
		</g>
		<g>
			<path class="st9" d="M183.5,250.7c0,3.8,3.1,6.8,6.8,6.8c3.8,0,6.8-3.1,6.8-6.8c0-3.8-3.1-6.8-6.8-6.8
				C186.6,243.9,183.5,247,183.5,250.7z"/>
		</g>
		<g>
			<g>
				<g>
					<path class="st10" d="M153.2,132.4h63.7c1.4,0,2.5-1.1,2.5-2.5v-0.1c0-1.4-1.1-2.5-2.5-2.5h-63.7c-1.4,0-2.5,1.1-2.5,2.5v0.1
						C150.7,131.3,151.8,132.4,153.2,132.4z"/>
				</g>
			</g>
		</g>
		<g>
			<g>
				<g>
					<path class="st10" d="M153.2,141.5h63.7c1.4,0,2.5-1.1,2.5-2.5v-0.1c0-1.4-1.1-2.5-2.5-2.5h-63.7c-1.4,0-2.5,1.1-2.5,2.5v0.1
						C150.7,140.4,151.8,141.5,153.2,141.5z"/>
				</g>
			</g>
		</g>
		<g>
			<g>
				<g>
					<path class="st10" d="M153.2,150.7h63.7c1.4,0,2.5-1.1,2.5-2.5v-0.1c0-1.4-1.1-2.5-2.5-2.5h-63.7c-1.4,0-2.5,1.1-2.5,2.5v0.1
						C150.7,149.6,151.8,150.7,153.2,150.7z"/>
				</g>
			</g>
		</g>
		<g>
			<g>
				<g>
					<g>
						<path class="st10" d="M186.1,230h-73.3c-6.1,0-11.1-5-11.1-11.1v-44.6c0-6.1,5-11.1,11.1-11.1h73.3c6.1,0,11.1,5,11.1,11.1
							v44.6C197.1,225,192.2,230,186.1,230z M112.8,164.7c-5.3,0-9.7,4.3-9.7,9.7v44.6c0,5.3,4.3,9.7,9.7,9.7h73.3
							c5.3,0,9.7-4.3,9.7-9.7v-44.6c0-5.3-4.3-9.7-9.7-9.7H112.8z"/>
					</g>
				</g>
			</g>
		</g>
		<g>
			<g>
				<g>
					<path class="st10" d="M118.6,180.1h61.7c2.7,0,4.9-2.2,4.9-4.9v-0.9c0-2.7-2.2-4.9-4.9-4.9h-61.7c-2.7,0-4.9,2.2-4.9,4.9v0.9
						C113.7,177.9,115.9,180.1,118.6,180.1z"/>
				</g>
			</g>
		</g>
		<rect x="135.1" y="299.3" class="st6" width="110.5" height="5.6"/>
		<g>
			<path class="st11" d="M266.1,177.9c0,5.9-3.2,11-7.9,13.7c-0.9,0.6-2,1-3,1.4c-0.1,0-0.2,0.1-0.3,0.1c-1.5,0.5-3.1,0.7-4.7,0.7
				c-2.5,0-4.9-0.6-7.1-1.7c-5.2-2.6-8.8-8-8.8-14.2c0-8.8,7.1-15.9,15.9-15.9C259,162,266.1,169.1,266.1,177.9z"/>
			<g>
				<path class="st12" d="M246.4,176.2c0,0-1.1-7,4.7-6.9c5.8,0.1,5.7,3.6,5.6,7.1c-0.1,3.4-2.3,3.2,0.2,8c2.5,4.8-2.2,4.8-2.2,4.8
					l-3.6-5L246.4,176.2z"/>
			</g>
			<g>
				<path class="st13" d="M250.5,170c0,0-3.9,0.6-4.1,6.2c-0.2,5.6,1.1,6.8,4.5,5.6c3.4-1.2,4.5-7,4.6-7.9
					C255.6,173,255.8,169.3,250.5,170z"/>
			</g>
			<g>
				<path class="st14" d="M257.4,189.5c0,1.7-0.9,2.8-2.2,3.5c-0.1,0-0.2,0.1-0.3,0.1c-1.5,0.5-3.1,0.7-4.7,0.7
					c-2.5,0-4.9-0.6-7.1-1.7c-0.5-1,0.2-2.3,1.6-4.4c1-1.4,1.9-2.9,3.5-3.6c2.4-0.4,4.9-0.4,6.7,0.6
					C256.5,185.6,257.4,187,257.4,189.5z"/>
			</g>
			<g>
				<path class="st14" d="M245.6,187.7l-1.8,2.9c0,0,0.1-0.4,0.3-1.7c0-0.2,0.1-0.5,0.1-0.8c0-0.1,0-0.2,0.1-0.3l0,0
					c0.8-1.8,3.2-3.1,3.3-3.2L245.6,187.7z"/>
			</g>
			<g>
				<path class="st13" d="M258.3,191.7c-0.9,0.6-2,1-3,1.4c-0.1,0-0.2,0.1-0.3,0.1c-0.4-1-0.8-1.9-0.8-2.2c0-0.1-0.1-0.2-0.1-0.4
					c-0.3-0.8-1.1-2.6-1.1-3.9c0-0.9,0.3-1.6,1.2-1.8c0.4-0.1,0.7-0.1,1,0c1,0.2,1.6,1.1,1.9,1.9c0,0,0,0,0,0
					c0.3,0.7,0.4,1.3,0.4,1.3s0,0.1,0,0.2c0.1,0.2,0.2,0.6,0.3,1.2C257.8,190,258,190.8,258.3,191.7z"/>
			</g>
			<g>
				<path class="st13" d="M253.2,179.4c-0.3,0.6-0.7,4.6-0.7,4.6s-4.8,1.8-4.3,0.8c0.2-0.5,0.3-1.1,0.3-1.6c0-0.4,0-0.8-0.1-1
					c0-0.1,0-0.2,0-0.2S253.5,178.7,253.2,179.4z"/>
			</g>
			<g>
				<path class="st12" d="M248.9,174c0,0,2,3.3,3.9,4.6c1.8,1.3,0.9,2.3,0.9,2.3s4.8-10.1,0.2-10.8c-4.6-0.7-7.4-0.8-7.5,6.1
					C246.4,176.2,248.5,174,248.9,174z"/>
			</g>
			<g>
				<path class="st15" d="M251.1,181.8c-0.7,1.1-2.7,1.4-2.7,1.4s0,0,0,0c0-0.4,0-0.8-0.1-1C249.6,182.5,251.1,181.8,251.1,181.8z"
					/>
			</g>
			<path class="st16" d="M244.3,187.8L244.3,187.8c0,0-0.1,0.2-0.2,1.1l0.7-1.1c0,0,1.3-1.8,1.7-2.3c0.4-0.5,1.1-0.9,1.1-0.9
				S245,185.8,244.3,187.8z"/>
			<path class="st14" d="M253.9,190.5c0,0,3.1-1.2,4-1.3c0,0-0.6-5-3.7-4.4C251.2,185.3,253.9,190.5,253.9,190.5z"/>
			<path class="st13" d="M248.3,184.2c0,0-2.3,3.5-1.5,3.8c0.8,0.3,4.9-0.4,6.7-3.7C253.5,184.2,250.9,182.9,248.3,184.2z"/>
		</g>
		<g>
			<path class="st11" d="M272,131.5c0,5.1-1.8,9.7-4.8,13.3c-0.7,0.8-1.5,1.6-2.3,2.3c-0.2,0.2-0.5,0.4-0.7,0.6
				c-0.3,0.2-0.6,0.4-0.9,0.6c-2.7,1.9-5.9,3.2-9.4,3.6c-0.6,0.1-1.2,0.1-1.9,0.1c-0.2,0-0.5,0-0.7,0c-0.7,0-1.3,0-2-0.1
				c-0.7-0.1-1.4-0.2-2.2-0.3c-3.1-0.6-6-2-8.5-3.9c-0.7-0.6-1.4-1.2-2.1-1.8c-0.1-0.1-0.3-0.3-0.4-0.4c-0.5-0.5-0.9-1-1.3-1.5
				c-2.7-3.5-4.3-7.9-4.3-12.7c0-11.4,9.3-20.7,20.7-20.7C262.7,110.8,272,120.1,272,131.5z"/>
			<g>
				<g>
					<path class="st17" d="M264.8,142.9l-1.5,5.5c-2.7,1.9-5.9,3.2-9.4,3.6c-0.6,0.1-1.2,0.1-1.9,0.1c-0.2,0-0.5,0-0.7,0
						c-0.7,0-1.3,0-2-0.1c-0.7-0.1-1.4-0.2-2.2-0.3c-3.1-0.6-6-2-8.5-3.9c-0.3-1.8-0.6-3.8-0.9-5.7c1.5-0.6,6.4-2.2,9.4-3.2
						c0,0,0.1,0,0.1,0c0.1,0,0.1,0,0.2-0.1c0.2-0.1,0.4-0.1,0.5-0.2c0.2-0.1,0.3-0.1,0.5-0.2c0.6-0.2,1.1-0.4,1.2-0.4c0,0,0,0,0,0
						c0,0,0.1,0,0.1,0l0,0l4.1,0.3l0.7,0.1l0.2,0c0,0,0,0,0.1,0c0.2,0.1,1,0.3,1.9,0.5c0,0,0,0,0,0
						C259.4,139.8,263.3,141.2,264.8,142.9z"/>
				</g>
				<g>
					<path class="st18" d="M252.4,121.3c0,0,4.9,0.8,4.1,8.5c-0.8,7.7-5.2,7-5.5,7c-0.3,0-4.4,0.1-4.6-9.3
						C246.4,127.5,246.3,120.5,252.4,121.3z"/>
				</g>
				<g>
					<path class="st18" d="M254.5,134.6c0,0-0.2,3.2,0.1,3.9c0.3,0.7-4,2.9-6.6,0.4c0,0,0.5-3.5,0.4-4.7
						C248.3,132.9,254.5,134.6,254.5,134.6z"/>
				</g>
				<g>
					<path class="st18" d="M256.6,127.6c0,0,0.5-0.6,0.7,0c0.2,0.6-0.9,3.2-0.8,3.3c0,0-0.1,0.2-0.2,0.1
						C256.2,130.9,256.6,127.6,256.6,127.6z"/>
				</g>
				<g>
					<path class="st18" d="M246.5,127.4c0,0-0.5-0.6-0.7,0c-0.2,0.6,0.6,3.2,0.7,3.3c0,0,0.2,0.3,0.3,0.1
						C246.8,130.8,246.5,127.4,246.5,127.4z"/>
				</g>
				<g>
					<path class="st19" d="M256.9,127c-0.2,1.1-0.3,1.8-0.3,1.8l-0.7,0.9c0,0,0-2.1-0.1-2.4c0-0.1-0.1-0.3-0.1-0.6
						c-0.1-0.4-0.2-0.8-0.2-1c-0.1-0.2-4.2-1.4-7.9,0.3c0,0,0,0.3,0,0.7c0,0.4,0,0.9-0.2,0.9c-0.4,0.1-0.2,2.4-0.2,2.4l-0.6-0.7
						c0,0-0.2-1.2-0.3-2.6c0,0,0,0,0,0c0-0.3-0.1-0.7-0.1-1c-0.1-1.4,0.1-3.9,1.9-5.4c1.2-0.5,3.2-1,6.4,0c0,0,0.7,0,1,0.2
						C257.3,123,256.9,127,256.9,127z"/>
				</g>
				<path class="st20" d="M248.8,135.8c0,0,0.8,1.1,2.6,1.1c1.8,0,2.6-1,2.6-1s-0.9,1.8-2.6,1.8
					C249.6,137.6,248.8,135.8,248.8,135.8z"/>
				<path class="st18" d="M247.6,138.9c0,0,1.3,2.3,3.8,2.5c1.6,0.1,3-1.9,3.6-2.9C255,138.6,251.4,137,247.6,138.9z"/>
				<path class="st21" d="M254.5,137.8c0,0-1,1.3-3.2,2.7l1.3,2.1l2.3-4.1L254.5,137.8z"/>
				<path class="st21" d="M248.2,138.1c0,0,1.3,1.6,3.2,2.4l-1.5,2.1l-2.6-3.7L248.2,138.1z"/>
				<path class="st22" d="M251.4,140.6l1.1,1.7c0,0-1.2,0.7-2.3,0L251.4,140.6z"/>
				<path class="st23" d="M266.1,142.6c0,0,0,0,0,0.1c-0.1,0.4-0.6,2.2-1.2,4.4c-0.2,0.2-0.5,0.4-0.7,0.6c-0.3,0.2-0.6,0.4-0.9,0.6
					c-2.7,1.9-5.9,3.2-9.4,3.6c0.3-7.2,1.2-13.5,1.2-13.5c0.7,0.2,1.3,0.4,1.9,0.5c0,0,0,0,0,0c5.3,1.5,7.9,2.8,8.8,3.3c0,0,0,0,0,0
					C266,142.6,266.1,142.6,266.1,142.6z"/>
				<path class="st23" d="M247.2,151.8c-3.1-0.6-6-2-8.5-3.9c-0.7-0.6-1.4-1.2-2.1-1.8c-0.1-0.1-0.3-0.3-0.4-0.4
					c-0.4-1.5-0.6-2.5-0.6-2.6l0,0c0,0,2.6-1.7,11.6-4.1c0,0,0,0,0,0C247.2,139.2,247.3,145,247.2,151.8z"/>
				<path class="st22" d="M252.1,142.5c-0.1,1.9-0.1,5.5-0.1,9.7c-0.2,0-0.5,0-0.7,0c-0.7,0-1.3,0-2-0.1c0.4-5.2,1.1-8.4,1.4-9.6
					c0.1-0.4,0.2-0.6,0.2-0.6l1.2,0.2C252.1,142.2,252.1,142.3,252.1,142.5z"/>
				<g>
					<path class="st23" d="M267.2,144.8c-0.7,0.8-1.5,1.6-2.3,2.3c-0.2,0.2-0.5,0.4-0.7,0.6l1.6-5.4l0,0c0,0,0,0,0,0
						c0.1,0.1,0.2,0.2,0.3,0.3C266.4,143.2,266.8,143.9,267.2,144.8z"/>
				</g>
				<g>
					<path class="st23" d="M236.6,146.1c-0.1-0.1-0.3-0.3-0.4-0.4c-0.5-0.5-0.9-1-1.3-1.5c0.2-0.6,0.5-0.9,0.7-1.1l0,0L236.6,146.1z
						"/>
				</g>
			</g>
		</g>
		<path class="st24" d="M126.4,109.8h-23.2c-1.3,0-2.3-1-2.3-2.3v-1.8c0-1.3,1-2.3,2.3-2.3h23.2c1.3,0,2.3,1,2.3,2.3v1.8
			C128.7,108.7,127.7,109.8,126.4,109.8z"/>
		<g>
			<path class="st11" d="M266.1,215.8c0,8.8-7.1,15.9-15.9,15.9c-8.8,0-15.9-7.1-15.9-15.9c0-8.8,7.1-15.9,15.9-15.9
				C259,199.9,266.1,207,266.1,215.8z"/>
			<g>
				<path class="st25" d="M250.2,222.2c-0.4,0-0.8-0.4-0.8-0.8v-11.1c0-0.4,0.4-0.8,0.8-0.8c0.4,0,0.8,0.4,0.8,0.8v11.1
					C251,221.8,250.7,222.2,250.2,222.2z"/>
			</g>
			<g>
				<path class="st25" d="M255.8,216.6h-11.1c-0.4,0-0.8-0.4-0.8-0.8c0-0.4,0.4-0.8,0.8-0.8h11.1c0.4,0,0.8,0.4,0.8,0.8
					C256.6,216.3,256.2,216.6,255.8,216.6z"/>
			</g>
		</g>
		<g>
			<g>
				<path class="st26" d="M216.3,178.9h-8.7c-1.7,0-3.1-1.4-3.1-3.1v-8.7c0-1.7,1.4-3.1,3.1-3.1h8.7c1.7,0,3.1,1.4,3.1,3.1v8.7
					C219.4,177.5,218,178.9,216.3,178.9z"/>
			</g>
			<g>
				<g>
					<g>
						<path class="st27" d="M211.4,174.7l-3.8-3.3c-0.3-0.3-0.3-0.7-0.1-1c0.3-0.3,0.7-0.3,1-0.1l2.7,2.3l3.8-4.2
							c0.3-0.3,0.7-0.3,1-0.1c0.3,0.3,0.3,0.7,0.1,1L211.4,174.7z"/>
					</g>
				</g>
			</g>
		</g>
		<g>
			<g>
				<path class="st26" d="M216.3,198h-8.7c-1.7,0-3.1-1.4-3.1-3.1v-8.7c0-1.7,1.4-3.1,3.1-3.1h8.7c1.7,0,3.1,1.4,3.1,3.1v8.7
					C219.4,196.6,218,198,216.3,198z"/>
			</g>
			<g>
				<g>
					<g>
						<path class="st27" d="M211.4,193.8l-3.8-3.3c-0.3-0.3-0.3-0.7-0.1-1c0.3-0.3,0.7-0.3,1-0.1l2.7,2.3l3.8-4.2
							c0.3-0.3,0.7-0.3,1-0.1c0.3,0.3,0.3,0.7,0.1,1L211.4,193.8z"/>
					</g>
				</g>
			</g>
		</g>
		<g>
			<g>
				<path class="st26" d="M216.3,217.1h-8.7c-1.7,0-3.1-1.4-3.1-3.1v-8.7c0-1.7,1.4-3.1,3.1-3.1h8.7c1.7,0,3.1,1.4,3.1,3.1v8.7
					C219.4,215.7,218,217.1,216.3,217.1z"/>
			</g>
		</g>
		<g>
			<path class="st28" d="M144.4,309.5c0,0-0.8,1.7-1.4,2.4c-0.6,0.7-3.1,1.9-3.1,3.9c0,2.2,4.1,1.6,5.7,1.5c1.6-0.1,1.7-1.2,2.4-2.5
				c0.7-1.2,1.4-1,1.5-2c0.1-1-0.5-3.2-0.5-3.2L144.4,309.5z"/>
			<path class="st29" d="M144.4,308.9l-0.1,1c0,0,2.5,0.9,5,0.1l-0.1-1.4L144.4,308.9z"/>
			<path class="st28" d="M174.3,309.5c0,0,0.8,1.7,1.4,2.4c0.6,0.7,3.1,1.9,3.1,3.9c0,2.2-4.1,1.6-5.7,1.5c-1.6-0.1-1.7-1.2-2.4-2.5
				c-0.7-1.2-1.4-1-1.5-2c-0.1-1,0.5-3.2,0.5-3.2L174.3,309.5z"/>
			<path class="st29" d="M174.4,308.9l0.1,1c0,0-2.5,0.9-5,0.1l0.1-1.4L174.4,308.9z"/>
			<path class="st30" d="M173,281.4c0,2.7,2.5,27.2,2.5,27.2c-0.3,0.9-6.4,0.8-7.4,0.3c-1-0.4-3.7-24.7-3.9-27.4
				c-0.2-2.7-4.2-26.2-5-26.1c-0.8,0.1-4.8,25.3-5.5,27.4c-0.7,2.1-3.7,26.4-3.7,26.4c-2.1,1.2-7.1-0.3-7.1-0.3s1.1-25,1.2-25.8
				c0.2-1.1,0-4.1,0.5-10.8c0.4-6,2-19,3-26.1c0-0.3,0.1-0.5,0.1-0.7c0.2-1.4,0.3-2.4,0.4-2.9c0-0.2,0-0.3,0-0.3
				c0.3-0.1,0.6-0.2,0.8-0.3c7-2.4,20.4-2.2,20.4-2.2s0.2,2.4,0.2,2.5c0,0.1,0,0.4,0.1,0.7c0.1,0.6,0.2,1.5,0.3,2.6c0,0,0,0,0,0
				c0,0,0,0.1,0,0.1c0.5,3.8,1.1,9.4,1.1,10C170.9,256.6,173,278.7,173,281.4z"/>
			<g>
				<path class="st17" d="M174,202.1l-3.5,12.4c-0.1,0.4-0.3,0.9-0.4,1.5l0,0c0,0,0,0,0,0c-0.6,2.2-1.3,5.6-1.5,9.3
					c-0.1,2.5,0.3,12.8,0.3,12.8s-5.2,1.9-13,1.5c0,0-8.4-0.2-7.7-5.4c1.8-13.6,0-19.3-0.2-20.6c0,0-1-6.3-1.8-11.8
					c2.4-0.9,12.3-4.6,12.3-4.6l5.2,0.4C163.8,197.5,171.8,199.4,174,202.1z"/>
			</g>
			<g>
				<path class="st18" d="M161.2,179.6c0,0,5.1,0.9,4.2,8.9c-0.9,8-5.4,7.3-5.7,7.3c-0.3,0-4.5,0.1-4.8-9.7
					C155,186,154.9,178.8,161.2,179.6z"/>
			</g>
			<g>
				<path class="st18" d="M163.4,193.4c0,0-0.2,3.3,0.1,4c0.3,0.7-4.1,3-6.8,0.4c0,0,0.6-3.6,0.4-4.9
					C156.9,191.7,163.4,193.4,163.4,193.4z"/>
			</g>
			<g>
				<path class="st18" d="M165.5,186.2c0,0,0.6-0.6,0.8,0c0.2,0.6-0.9,3.3-0.8,3.4c0,0-0.1,0.2-0.2,0.1
					C165.1,189.6,165.5,186.2,165.5,186.2z"/>
			</g>
			<g>
				<path class="st18" d="M155,185.9c0,0-0.5-0.6-0.8,0c-0.2,0.6,0.6,3.3,0.7,3.5c0,0,0.2,0.3,0.3,0.2
					C155.4,189.4,155,185.9,155,185.9z"/>
			</g>
			<g>
				<path class="st19" d="M165.9,185.5c-0.2,1.1-0.3,1.9-0.3,1.9l-0.7,1c0,0,0-2.1-0.1-2.5c0-0.1-0.1-0.4-0.1-0.6
					c-0.1-0.4-0.2-0.9-0.2-1c-0.1-0.2-4.4-1.5-8.2,0.3c0,0,0,0.3,0,0.7c0,0.4,0,0.9-0.2,1c-0.4,0.1-0.2,2.5-0.2,2.5l-0.6-0.7
					c0,0-0.2-1.2-0.3-2.7c0,0,0,0,0,0c0-0.3-0.1-0.7-0.1-1c-0.1-1.4,0.1-4,1.9-5.6c1.3-0.5,4.7-1.1,6.6,0c0,0,1,0.6,1.2,0.8
					C166.6,181.9,165.9,185.5,165.9,185.5z"/>
			</g>
			<path class="st20" d="M157.4,194.6c0,0,0.8,1.1,2.7,1.1c1.9,0,2.7-1,2.7-1s-0.9,1.9-2.7,1.9C158.3,196.5,157.4,194.6,157.4,194.6
				z"/>
			<path class="st18" d="M156.2,197.9c0,0,1.4,2.4,4,2.6c1.6,0.1,3.1-2,3.7-3C163.9,197.5,160.2,195.9,156.2,197.9z"/>
			<path class="st21" d="M163.4,196.7c0,0-1,1.4-3.3,2.8l1.4,2.1l2.4-4.2L163.4,196.7z"/>
			<path class="st21" d="M156.8,197.1c0,0,1.3,1.7,3.3,2.5l-1.5,2.2L156,198L156.8,197.1z"/>
			<path class="st22" d="M160.2,199.6l1.2,1.8c0,0-1.2,0.7-2.4,0L160.2,199.6z"/>
			<path class="st31" d="M148,240.4c0,0,6.4,2.4,20.9,0.1l-0.2-2.6c0,0-8.4,2.5-20.5,0.4L148,240.4z"/>
			<path class="st32" d="M163.9,197.5c0,0-1.5,11.2-1.3,20.9c0.2,9.7,3.3,27.8,3.3,27.8s5.6-0.5,7-2.3c0,0-3.2-17.4-3.1-20
				c0.1-2.6,4.1-22,4.1-22S172.4,199.7,163.9,197.5z"/>
			<path class="st32" d="M155.9,198.1c0,0,0,10.6-0.2,20.3c-0.2,9.7-1.5,27.6-1.5,27.6s-6.6-0.9-7.9-2.7c0,0,2.3-16.9,2.2-19.5
				c-0.1-2.6-3-21.8-3-21.8S146.5,200.6,155.9,198.1z"/>
			<rect x="156.7" y="238.8" class="st33" width="3.9" height="2.9"/>
			<path class="st22" d="M159.6,200.9c0,0-1.8,6-1.9,17.9c-0.2,11.9,0.2,15.3,0.2,15.3l1.4,2.7l1.8-2.8c0,0-0.6-27.4-0.2-33
				L159.6,200.9z"/>
			<path class="st13" d="M166.9,217.7c0,0,2.6-1.3,3-1.5c0.4-0.2,4.7-0.9,5.3-0.9c0.5,0,0.6,0.5,0.4,0.6c-0.2,0.2-4.5,0.9-4.6,1
				c-0.1,0.1,0.4,0.1,0.4,0.1s4.7-0.1,5,0.2c0.3,0.3,0,0.6-0.2,0.7c0,0,0.4,0.5-0.1,0.7c-0.5,0.2-1.2,0.3-1.2,0.3s0.6,0.3,0.2,0.6
				c-0.4,0.3-5.4,1.8-5.4,1.8S167.9,217.8,166.9,217.7z"/>
			<path class="st32" d="M175.9,226.7c-3.4,0.8-11.2-0.5-14.2-1.2c-0.6-0.1-1.3-0.3-2.1-0.4h0c-1.2-0.2-2.5-0.5-3.5-0.7h0
				c-1.3-0.2-2.2-0.4-2.2-0.4s16.4-3.7,17-3.7c0.6,0-1.5-9.6-1.5-9.6s-2.1-8-1-11.2c0,0,4.2,1.3,5.5,2.2c0.8,0.5,1.3,4,1.8,6.4
				c0.7,3,2.2,9.8,2.3,11.3C178.2,220.8,179.3,225.9,175.9,226.7z"/>
			<path class="st32" d="M150.8,199.6c0,0-5,1.7-5.3,2.4c-1,2.8-1.5,5.8-1.8,7c-0.4,1.5-1.3,5.9-1.6,7.4c-0.3,1.8-0.9,8.4-0.6,9.4
				c0.3,1.3,3.3,1.2,4.9,0.9c1.6-0.3,24.1-5.7,24.1-5.7s-1.3-4.2-1.3-4.5c0,0-17.3,2-19.5,2.4c-1.3,0.3-1.5,0.4-1.5,0.4
				S151.9,203.6,150.8,199.6z"/>
			<path class="st13" d="M153.8,218.3c0,0-2.3-1.8-2.6-2.1c-0.3-0.3-4.4-1.9-5-2c-0.5-0.1-0.6,0.3-0.6,0.5c0.1,0.4,4.3,1.8,4.3,1.9
				c0.1,0.1-0.4,0-0.4,0s-4.6-1.1-4.9-0.8c-0.4,0.2-0.1,0.6,0.1,0.7c0,0-0.5,0.4-0.1,0.7c0.4,0.3,1.1,0.6,1.1,0.6s-0.7,0.2-0.3,0.5
				c0.3,0.4,2.7,0.9,2.7,0.9S152.8,218.2,153.8,218.3z"/>
			<path class="st34" d="M167.2,221.8l-7.6,3.3h0c-1.2-0.2-2.5-0.5-3.5-0.7L167.2,221.8z"/>
			<path class="st19" d="M163.6,179.5c0,0,1.3-0.6,2,0.2c0.7,0.8,0.8,5.4-0.1,7.1C164.6,188.6,165.6,180.6,163.6,179.5z"/>
		</g>
		<rect x="113" y="224.6" class="st35" width="2.3" height="103.1"/>
		<path class="st36" d="M118.5,310.7h-61c-3.8,0-6.8-3-6.8-6.8V188.4c0-3.8,3-6.8,6.8-6.8h61c3.8,0,6.8,3,6.8,6.8v115.5
			C125.3,307.6,122.3,310.7,118.5,310.7z"/>
		<path class="st7" d="M116.5,305.6H59.5c-3.7,0-6.7-3-6.7-6.7V190.4c0-3.7,3-6.7,6.7-6.7h57.1c3.7,0,6.7,3,6.7,6.7v108.5
			C123.3,302.6,120.3,305.6,116.5,305.6z"/>
		<rect x="76.9" y="180.6" class="st35" width="22.2" height="5"/>
		<g>
			<g>
				<g>
					<g>
						<path class="st37" d="M109.7,300.8H64.6c-3.7,0-6.6-3-6.6-6.6v-25.7c0-3.7,3-6.6,6.6-6.6h45.1c3.7,0,6.6,3,6.6,6.6v25.7
							C116.3,297.8,113.3,300.8,109.7,300.8z M64.6,262.7c-3.2,0-5.8,2.6-5.8,5.8v25.7c0,3.2,2.6,5.8,5.8,5.8h45.1
							c3.2,0,5.8-2.6,5.8-5.8v-25.7c0-3.2-2.6-5.8-5.8-5.8H64.6z"/>
					</g>
				</g>
			</g>
		</g>
		<g>
			<g>
				<path class="st23" d="M69.2,238.6C69.2,238.6,69.2,238.6,69.2,238.6C69.2,238.6,69.2,238.6,69.2,238.6z"/>
			</g>
		</g>
		<g>
			<path class="st37" d="M108.4,235.8c-4.1,0-7.4-3.3-7.4-7.4c0-4.1,3.3-7.4,7.4-7.4c4.1,0,7.4,3.3,7.4,7.4
				C115.7,232.5,112.4,235.8,108.4,235.8z M108.4,222c-3.6,0-6.5,2.9-6.5,6.5c0,3.6,2.9,6.5,6.5,6.5c3.6,0,6.5-2.9,6.5-6.5
				C114.9,224.9,112,222,108.4,222z"/>
		</g>
		<g>
			<path class="st37" d="M108.4,252.8c-4.1,0-7.4-3.3-7.4-7.4c0-4.1,3.3-7.4,7.4-7.4c4.1,0,7.4,3.3,7.4,7.4
				C115.7,249.5,112.4,252.8,108.4,252.8z M108.4,238.9c-3.6,0-6.5,2.9-6.5,6.5s2.9,6.5,6.5,6.5c3.6,0,6.5-2.9,6.5-6.5
				S112,238.9,108.4,238.9z"/>
		</g>
		<g>
			<path class="st37" d="M75.2,228.8c-0.6,0-1.2,0-1.8-0.1c-0.7-0.1-1.3-0.2-2-0.3c-2.8-0.6-5.5-1.8-7.8-3.6
				c-0.7-0.5-1.3-1.1-1.9-1.7c-0.1-0.1-0.2-0.2-0.3-0.4c-0.4-0.4-0.8-0.9-1.2-1.4c-2.6-3.4-4-7.4-4-11.6c0-10.5,8.5-19.1,19.1-19.1
				v0.9c-10,0-18.2,8.2-18.2,18.2c0,4.1,1.3,7.9,3.8,11.1c0.4,0.5,0.8,0.9,1.2,1.4c0.1,0.1,0.2,0.2,0.3,0.3c0.6,0.6,1.2,1.1,1.8,1.6
				c2.2,1.7,4.8,2.9,7.4,3.4c0.6,0.1,1.3,0.2,1.9,0.3c0.6,0.1,1.2,0.1,1.7,0.1c0.2,0,0.4,0,0.6,0c0.6,0,1.1-0.1,1.6-0.1
				c3-0.4,5.8-1.5,8.3-3.2c0.3-0.2,0.5-0.4,0.7-0.6c0.2-0.2,0.4-0.3,0.6-0.5c0.7-0.6,1.4-1.3,2-2.1c2.8-3.3,4.3-7.4,4.3-11.7
				c0-0.9-0.1-1.8-0.2-2.7l0.8-0.1c0.1,0.9,0.2,1.9,0.2,2.8c0,4.5-1.6,8.8-4.5,12.3c-0.6,0.8-1.4,1.5-2.1,2.2
				c-0.2,0.2-0.5,0.4-0.7,0.6c-0.2,0.2-0.5,0.4-0.8,0.6c-2.6,1.8-5.6,3-8.7,3.4c-0.6,0.1-1.1,0.1-1.7,0.1
				C75.7,228.8,75.5,228.8,75.2,228.8z"/>
		</g>
		<path class="st37" d="M88.5,219.9c-0.1-0.1-0.1-0.2-0.2-0.2c0,0,0-0.1-0.1-0.1c0,0,0,0,0,0l0,0c-0.8-0.5-3.2-1.6-7.9-3
			c0,0,0,0,0,0c-0.9-0.3-1.5-0.4-1.7-0.5c-0.1,0-0.1,0-0.1,0l-0.2,0c0,0,0,0,0,0c-0.2-0.4-0.2-1.9-0.1-2.8c0.7-0.8,1.3-2,1.6-3.9
			c0.1,0.1,0.2-0.1,0.2-0.1c-0.1-0.1,0.9-2.4,0.7-3c-0.1-0.3-0.3-0.3-0.5-0.2c0-0.1,0-0.3,0.1-0.4c0,0,0.4-3.6-1.4-5.6
			c-0.2-0.2-0.9-0.2-0.9-0.2c-2.9-0.9-4.7-0.5-5.8,0c-1.6,1.3-1.7,3.6-1.7,4.8c0,0.3,0.1,0.6,0.1,0.9c0,0,0,0,0,0c0,0.1,0,0.2,0,0.3
			c-0.2-0.1-0.4-0.1-0.5,0.2c-0.2,0.5,0.5,2.9,0.6,3c0,0,0.2,0.2,0.3,0.1l0,0c0.3,2.1,0.9,3.3,1.6,4.1c-0.1,1.2-0.3,2.6-0.3,3h0
			c-0.1,0-0.3,0.1-0.5,0.2c-0.1,0-0.1,0-0.2,0.1c0,0-0.1,0-0.1,0c0,0,0,0,0,0c-8.2,2.2-10.5,3.7-10.5,3.7c-0.2,0.1-0.4,0.5-0.6,1
			c0.4,0.5,0.8,0.9,1.2,1.4c0.1,0.1,0.2,0.2,0.3,0.4c0.6,0.6,1.2,1.1,1.9,1.7c2.2,1.7,4.8,2.9,7.6,3.5c0.6,0.1,1.3,0.2,1.9,0.3
			c0.6,0.1,1.2,0.1,1.8,0.1c0.2,0,0.4,0,0.6,0c0.6,0,1.1-0.1,1.7-0.1c3.1-0.4,6-1.5,8.5-3.3c0.3-0.2,0.5-0.4,0.8-0.6
			c0.2-0.2,0.4-0.4,0.7-0.5c0.7-0.6,1.4-1.4,2.1-2.1C89.1,220.9,88.8,220.2,88.5,219.9z"/>
		<g>
			<g>
				
					<rect x="288.3" y="261.4" transform="matrix(-1 -1.224647e-16 1.224647e-16 -1 598.7334 524.1162)" class="st38" width="22.1" height="1.3"/>
			</g>
			<g>
				<rect x="305.5" y="266.1" class="st35" width="1.9" height="59.6"/>
			</g>
			<g>
				
					<rect x="276.4" y="261" transform="matrix(-1 -1.224647e-16 1.224647e-16 -1 568.2324 523.9335)" class="st39" width="15.3" height="1.9"/>
			</g>
			<g>
				
					<rect x="281.2" y="245.1" transform="matrix(-1 -1.224647e-16 1.224647e-16 -1 568.2324 507.7822)" class="st40" width="5.8" height="17.6"/>
			</g>
			<g>
				
					<rect x="233.3" y="262.7" transform="matrix(-1 -1.224647e-16 1.224647e-16 -1 551.6416 528.8574)" class="st41" width="85" height="3.4"/>
			</g>
			<g>
				<path class="st23" d="M334.6,242.2c0,0,0.9,13-1.6,14.6c-1.6,1-8,4.3-7.8,4.9c0.2,0.6,3.6,5.5,3.6,5.5s12.2-8,12.6-10.6
					c0.4-2.5-0.6-19.1-2.3-19.9c-1.3-0.6-1.9-0.1-3.5,1.1C333.4,239.5,334.6,242.2,334.6,242.2z"/>
			</g>
			<g>
				<g>
					<g>
						<path class="st42" d="M312.4,246l-1.1-0.4c0,0,1.3-3.2,1.9-3.1c0.7,0.1,1.5,0.3,1.5,0.3L312.4,246z"/>
					</g>
				</g>
			</g>
			<g>
				<g>
					<g>
						<path class="st43" d="M312.1,246.5c0.1-0.1,2.3-4.2,2.3-4.2l4.6,0.6l-2.5,4.9L312.1,246.5z"/>
					</g>
				</g>
			</g>
			<g>
				<g>
					<g>
						<path class="st44" d="M319.6,317.6c0,0,0.4,2.6,0.4,3c0,0.4,4.2-0.2,4.2-0.2l0.3-3.1C324.6,317.2,320.1,317.2,319.6,317.6z"/>
					</g>
				</g>
			</g>
			<g>
				<g>
					<g>
						<path class="st45" d="M320,320.3c0,0-1.3,1.6-2.6,2.3c-1.3,0.7-3.3,1-4.1,1.7c-0.5,0.5-2,2.7,3.3,2.7c5.3,0,7.9,0.3,8.5-0.5
							c0.6-0.9-0.8-6.3-0.8-6.3S323,320.5,320,320.3z"/>
					</g>
				</g>
			</g>
			<g>
				<g>
					<g>
						<path class="st44" d="M292.8,317.6c0,0,0.4,2.6,0.4,3c0,0.4,4.2-0.2,4.2-0.2l0.3-3.1C297.8,317.3,293.3,317.2,292.8,317.6z"/>
					</g>
				</g>
			</g>
			<g>
				<g>
					<g>
						<path class="st45" d="M293.2,320.3c0,0-1.3,1.6-2.6,2.3c-1.3,0.7-6,1.3-6.8,2c-0.5,0.5-1.5,2.6,6,2.4c5.3-0.1,7.9,0.3,8.5-0.5
							c0.6-0.9-0.8-6.3-0.8-6.3S296.3,320.6,293.2,320.3z"/>
					</g>
				</g>
			</g>
			<g>
				<g>
					<g>
						<path class="st45" d="M333.1,272c0,0-15.2,2.6-18.6,3.1c-3.4,0.5-22,5.2-24.4,6.6c-1.9,1.1,1,28.1,1.6,38.4h7.3l0.5-30.9
							c8.8,0.2,15.1-2.1,21.5-1.1c6.4,1,11.7,2.4,15.8-3.1C336.9,285,337,273.2,333.1,272z"/>
					</g>
				</g>
			</g>
			<g>
				<g>
					<g>
						<path class="st45" d="M318.1,320.1l7.1-0.4l0.7-30.5c3.8,0.1,5.1-0.1,8.1-0.5l5.8-13.4c-5.1,1-21.2,5.1-23.4,6.4
							C314.6,282.8,317.4,309.8,318.1,320.1z"/>
					</g>
				</g>
			</g>
			<g>
				<g>
					<g>
						<path class="st13" d="M326.1,215c0,0-5.6-1.5-7.7,2.8c-2.1,4.3-1.2,12.5,1.6,13.3c2.8,0.8,6.8-0.1,8-2.8
							c1.2-2.7,2.1-6.5,1.8-9C329.6,216.8,327.6,215.6,326.1,215z"/>
					</g>
				</g>
			</g>
			<g>
				<g>
					<g>
						<path class="st13" d="M321.5,230.3c0,0,0.1,3.3-0.3,4c-0.4,0.7,7.8,0.5,7.8,0.5s-1.3-3.9-0.6-7.3
							C329.1,224.1,321.5,230.3,321.5,230.3z"/>
					</g>
				</g>
			</g>
			<g>
				<g>
					<g>
						<path class="st46" d="M328.8,226.2c0,0-0.4,0.9-2.5,0.7c-2.1-0.1-4.9-2.7-5.8-2.9c-0.9-0.2-0.9-0.7-0.9-0.7l-0.5,0.8l-0.9,0.1
							c0,0,0.6-2.5-0.7-3.4c-1.4-0.9,0.6-8.1,7.5-6.4c0,0,5.2,1,5.3,3.9C330.3,221.3,329.8,224.7,328.8,226.2z"/>
					</g>
				</g>
			</g>
			<g>
				<g>
					<g>
						<path class="st38" d="M320.8,234.2c0,0,0-1.3,0.6-1.5c0.6-0.1,6.4-0.9,7.1-0.6l0.3,1.8C328.8,233.8,327.4,234.7,320.8,234.2z"
							/>
					</g>
				</g>
			</g>
			<g>
				<g>
					<g>
						<path class="st13" d="M319.1,222.7c0.2-1.1,1.4-2.4,2.1-0.6c0.7,1.7-0.5,4.2-1.3,4.1C319.1,226,318.9,224.2,319.1,222.7z"/>
					</g>
				</g>
			</g>
			<g>
				<g>
					<g>
						<path class="st23" d="M296.6,250C296.6,250,296.6,250,296.6,250C296.5,250,296.5,250,296.6,250z"/>
					</g>
				</g>
			</g>
			<g>
				<g>
					<g>
						<path class="st46" d="M327.7,215.8c0,0,6.8-0.3,1.2,10.3L327.7,215.8z"/>
					</g>
				</g>
			</g>
			<g>
				<g>
					<polygon class="st47" points="342.8,323.7 342.3,325.1 321,318.5 322,315.7 					"/>
				</g>
			</g>
			<g>
				<g>
					
						<rect x="320.3" y="294.3" transform="matrix(-1 -1.224647e-16 1.224647e-16 -1 642.9326 611.8242)" class="st47" width="2.4" height="23.2"/>
				</g>
			</g>
			<g>
				<g>
					
						<rect x="314.3" y="293.1" transform="matrix(-1 -1.224647e-16 1.224647e-16 -1 642.9326 587.5146)" class="st48" width="14.3" height="1.4"/>
				</g>
			</g>
			<g>
				<g>
					<polygon class="st47" points="299.9,323.7 300.4,325.1 321.8,318.5 320.8,315.5 					"/>
				</g>
			</g>
			<g>
				<g>
					<polygon class="st47" points="314.9,325 314.9,326.6 321.8,318.5 320.8,315.5 					"/>
				</g>
			</g>
			<g>
				<g>
					<path class="st49" d="M297.9,325.7c0,1.1,0.9,2,2,2c1.1,0,2-0.9,2-2c0-1.1-0.9-2-2-2C298.8,323.7,297.9,324.6,297.9,325.7z"/>
				</g>
			</g>
			<g>
				<g>
					<path class="st49" d="M314.8,325.7c0,1.1,0.9,2,2,2c1.1,0,2-0.9,2-2c0-1.1-0.9-2-2-2C315.7,323.7,314.8,324.6,314.8,325.7z"/>
				</g>
			</g>
			<g>
				<g>
					<path class="st49" d="M340.8,325.7c0,1.1,0.9,2,2,2c1.1,0,2-0.9,2-2c0-1.1-0.9-2-2-2C341.7,323.7,340.8,324.6,340.8,325.7z"/>
				</g>
			</g>
			<g>
				<path class="st38" d="M307,293.1h28.8c1.4,0,2.6-1.1,2.6-2.6v-0.1c0-1.4-1.1-2.6-2.6-2.6H307c-1.4,0-2.6,1.1-2.6,2.6v0.1
					C304.4,291.9,305.6,293.1,307,293.1z"/>
			</g>
			<g>
				
					<rect x="244.2" y="266.1" transform="matrix(-1 -1.224647e-16 1.224647e-16 -1 490.332 591.8223)" class="st35" width="1.9" height="59.6"/>
			</g>
			<g>
				<path class="st50" d="M261.6,253.6h45.1c1.4,0,2.6-1.1,2.6-2.6v-30.3c0-1.4-1.1-2.6-2.6-2.6h-45.1c-1.4,0-2.6,1.1-2.6,2.6V251
					C259,252.4,260.2,253.6,261.6,253.6z"/>
			</g>
			<g>
				
					<rect x="261" y="220.1" transform="matrix(-1 -1.224647e-16 1.224647e-16 -1 568.2324 468.1191)" class="st24" width="46.2" height="27.9"/>
			</g>
			<g>
				
					<rect x="261" y="220.1" transform="matrix(-1 -1.224647e-16 1.224647e-16 -1 568.2324 442.414)" class="st51" width="46.2" height="2.2"/>
			</g>
			<g>
				<path class="st51" d="M264.3,246.3h2.4c0.9,0,1.6-0.7,1.6-1.6v-19.2c0-0.9-0.7-1.6-1.6-1.6h-2.4c-0.9,0-1.6,0.7-1.6,1.6v19.2
					C262.7,245.6,263.4,246.3,264.3,246.3z"/>
			</g>
			<g>
				<path class="st51" d="M296.6,226.1h8.5c0.5,0,0.9-0.4,0.9-0.9v-0.4c0-0.5-0.4-0.9-0.9-0.9h-8.5c-0.5,0-0.9,0.4-0.9,0.9v0.4
					C295.8,225.7,296.1,226.1,296.6,226.1z"/>
			</g>
			<g>
				<path class="st51" d="M297.5,246.9h6.6c1,0,1.8-0.8,1.8-1.8v-15.9c0-1-0.8-1.8-1.8-1.8h-6.6c-1,0-1.8,0.8-1.8,1.8v15.9
					C295.8,246.1,296.5,246.9,297.5,246.9z"/>
			</g>
			<g>
				<path class="st52" d="M282.5,250.7c0,0.9,0.7,1.6,1.6,1.6c0.9,0,1.6-0.7,1.6-1.6c0-0.9-0.7-1.6-1.6-1.6
					C283.2,249.1,282.5,249.8,282.5,250.7z"/>
			</g>
			<g>
				<path class="st53" d="M273.7,262.8v-0.6c0,0,0.9-3.9,7.1-3.9c6.3,0,6.1,4.5,6.1,4.5H273.7z"/>
			</g>
			<g>
				<g>
					<path class="st13" d="M287.1,258.8c0,0-1.4-0.1-1.9-0.4c-0.5-0.3-3.5-2.3-4.2-2c-0.7,0.3-5.4,1.7-5.2,2.4
						c0.2,0.7,0.6,0.6,0.9,0.5c0.3-0.1,3.7-0.8,4-0.7c0,0-3.3,1.2-3.3,2.1c0,0.9,0.7,1.1,1,1.4c0.3,0.3,0.7,1.2,1.6,1.2
						c0.9,0.1,5-1.4,5.9-1.5c0.9-0.1,2.5,0.1,2.6-0.1C288.6,261.7,287.1,258.8,287.1,258.8z"/>
				</g>
			</g>
			<g>
				<g>
					<g>
						<path class="st23" d="M311.9,236c4.3-0.8,8.9-1.9,8.9-1.9l8.1-0.3c0,0,7.4,1.6,10.3,3c0.3,0.1,0.3,6.6,1,8.3l-2.4,5.1
							c0,0-1.4,10.1-1.7,14.6c-0.1,2.1,0.4,20,0.4,20s-0.7,0.4-6.2,1c-5.5,0.6-19.3-0.2-19.4-0.9c-0.1-0.7,2.7-24.2,2.8-25.5
							c0.2-1.9-0.5-10.5-0.5-10.5c-1,1.4-3.7,7.7-6.4,10.7c-1.6,1.8-9.7,2.8-11.2,2.9c-3.3,0.1-9.3,0.8-9.5,0.4
							c-0.1-0.2-0.5-5.3-0.1-5.5c0.3-0.1,11.5-0.8,14.4-2.3c1-0.6,4.2-7.4,4.2-7.4S309.5,237.1,311.9,236z"/>
					</g>
				</g>
			</g>
			<g>
				<path class="st38" d="M327.8,284.3h13.6c2.7,0,4.9-2.2,4.9-4.9v-22.6c0-2.7-2.2-4.9-4.9-4.9h-13.6c-2.7,0-4.9,2.2-4.9,4.9v22.6
					C322.9,282.1,325.1,284.3,327.8,284.3z"/>
			</g>
			<g>
				<path class="st38" d="M327,291.8c3.4,0,6.2-1.2,8.3-3.4c4.7-5.2,3.8-14.2,3.8-14.6c-0.1-0.7-0.7-1.2-1.4-1.2
					c-0.7,0.1-1.2,0.7-1.2,1.4c0,0.1,0.8,8.3-3.1,12.6c-1.6,1.7-3.7,2.6-6.4,2.6c-0.7,0-1.3,0.6-1.3,1.3
					C325.7,291.2,326.3,291.8,327,291.8z"/>
			</g>
			<g>
				<path class="st11" d="M284.8,231.5c0,1.6-0.6,3.1-1.5,4.2c-0.2,0.3-0.5,0.5-0.7,0.7c-0.1,0.1-0.2,0.1-0.2,0.2
					c-0.1,0.1-0.2,0.1-0.3,0.2c-0.9,0.6-1.9,1-3,1.2c-0.2,0-0.4,0-0.6,0c-0.1,0-0.1,0-0.2,0c-0.2,0-0.4,0-0.6,0
					c-0.2,0-0.5-0.1-0.7-0.1c-1-0.2-1.9-0.6-2.7-1.2c-0.2-0.2-0.5-0.4-0.7-0.6c0,0-0.1-0.1-0.1-0.1c-0.1-0.2-0.3-0.3-0.4-0.5
					c-0.9-1.1-1.4-2.5-1.4-4c0-3.6,2.9-6.5,6.5-6.5C281.9,225,284.8,227.9,284.8,231.5z"/>
				<g>
					<g>
						<path class="st17" d="M282.5,235.1l-0.5,1.7c-0.9,0.6-1.9,1-3,1.2c-0.2,0-0.4,0-0.6,0c-0.1,0-0.1,0-0.2,0c-0.2,0-0.4,0-0.6,0
							c-0.2,0-0.5-0.1-0.7-0.1c-1-0.2-1.9-0.6-2.7-1.2c-0.1-0.6-0.2-1.2-0.3-1.8c0.5-0.2,2-0.7,3-1c0,0,0,0,0,0c0,0,0,0,0.1,0
							c0.1,0,0.1,0,0.2-0.1c0.1,0,0.1,0,0.2-0.1c0.2-0.1,0.3-0.1,0.4-0.1c0,0,0,0,0,0c0,0,0,0,0,0l0,0l1.3,0.1l0.2,0l0.1,0
							c0,0,0,0,0,0c0.1,0,0.3,0.1,0.6,0.2h0C280.8,234.1,282,234.6,282.5,235.1z"/>
					</g>
					<g>
						<path class="st18" d="M278.6,228.3c0,0,1.6,0.3,1.3,2.7c-0.3,2.4-1.6,2.2-1.7,2.2c-0.1,0-1.4,0-1.4-2.9
							C276.7,230.2,276.7,228,278.6,228.3z"/>
					</g>
					<g>
						<path class="st18" d="M279.3,232.5c0,0-0.1,1,0,1.2c0.1,0.2-1.2,0.9-2.1,0.1c0,0,0.2-1.1,0.1-1.5
							C277.3,231.9,279.3,232.5,279.3,232.5z"/>
					</g>
					<g>
						<path class="st18" d="M279.9,230.3c0,0,0.2-0.2,0.2,0c0.1,0.2-0.3,1-0.3,1c0,0,0,0.1-0.1,0
							C279.8,231.3,279.9,230.3,279.9,230.3z"/>
					</g>
					<g>
						<path class="st18" d="M276.7,230.2c0,0-0.2-0.2-0.2,0c-0.1,0.2,0.2,1,0.2,1.1c0,0,0.1,0.1,0.1,0
							C276.8,231.3,276.7,230.2,276.7,230.2z"/>
					</g>
					<g>
						<path class="st19" d="M280,230.1c-0.1,0.3-0.1,0.6-0.1,0.6l-0.2,0.3c0,0,0-0.7,0-0.8c0,0,0-0.1,0-0.2c0-0.1-0.1-0.3-0.1-0.3
							c0-0.1-1.3-0.5-2.5,0.1c0,0,0,0.1,0,0.2c0,0.1,0,0.3-0.1,0.3c-0.1,0-0.1,0.8-0.1,0.8l-0.2-0.2c0,0-0.1-0.4-0.1-0.8
							c0,0,0,0,0,0c0-0.1,0-0.2,0-0.3c0-0.4,0-1.2,0.6-1.7c0.4-0.2,1-0.3,2,0c0,0,0.2,0,0.3,0.1C280.2,228.8,280,230.1,280,230.1z"
							/>
					</g>
					<path class="st20" d="M277.5,232.9c0,0,0.2,0.3,0.8,0.3c0.6,0,0.8-0.3,0.8-0.3s-0.3,0.6-0.8,0.6
						C277.7,233.4,277.5,232.9,277.5,232.9z"/>
					<path class="st18" d="M277.1,233.8c0,0,0.4,0.7,1.2,0.8c0.5,0,0.9-0.6,1.1-0.9C279.4,233.7,278.3,233.2,277.1,233.8z"/>
					<path class="st21" d="M279.3,233.5c0,0-0.3,0.4-1,0.9l0.4,0.6l0.7-1.3L279.3,233.5z"/>
					<path class="st21" d="M277.3,233.6c0,0,0.4,0.5,1,0.8l-0.5,0.7l-0.8-1.2L277.3,233.6z"/>
					<path class="st22" d="M278.3,234.4l0.4,0.5c0,0-0.4,0.2-0.7,0L278.3,234.4z"/>
					<path class="st23" d="M282.9,235C282.9,235,282.9,235,282.9,235c-0.1,0.2-0.2,0.7-0.4,1.4c-0.1,0.1-0.2,0.1-0.2,0.2
						c-0.1,0.1-0.2,0.1-0.3,0.2c-0.9,0.6-1.9,1-3,1.2c0.1-2.3,0.4-4.3,0.4-4.3c0.2,0.1,0.4,0.1,0.6,0.2h0c1.7,0.5,2.5,0.9,2.8,1.1
						c0,0,0,0,0,0C282.9,235,282.9,235,282.9,235z"/>
					<path class="st23" d="M277,237.9c-1-0.2-1.9-0.6-2.7-1.2c-0.2-0.2-0.5-0.4-0.7-0.6c0,0-0.1-0.1-0.1-0.1
						c-0.1-0.5-0.2-0.8-0.2-0.8l0,0c0,0,0.8-0.5,3.7-1.3c0,0,0,0,0,0C277,233.9,277,235.8,277,237.9z"/>
					<path class="st22" d="M278.5,235c0,0.6,0,1.8,0,3.1c-0.1,0-0.1,0-0.2,0c-0.2,0-0.4,0-0.6,0c0.1-1.6,0.3-2.6,0.4-3
						c0-0.1,0.1-0.2,0.1-0.2l0.4,0.1C278.5,234.9,278.5,234.9,278.5,235z"/>
					<g>
						<path class="st23" d="M283.3,235.7c-0.2,0.3-0.5,0.5-0.7,0.7c-0.1,0.1-0.2,0.1-0.2,0.2l0.5-1.7v0c0,0,0,0,0,0
							c0,0,0.1,0.1,0.1,0.1C283,235.2,283.1,235.4,283.3,235.7z"/>
					</g>
					<g>
						<path class="st23" d="M273.6,236.1c0,0-0.1-0.1-0.1-0.1c-0.1-0.2-0.3-0.3-0.4-0.5c0.1-0.2,0.1-0.3,0.2-0.3l0,0L273.6,236.1z"
							/>
					</g>
				</g>
			</g>
		</g>
		<g>
			<path class="st54" d="M229.7,314.5c0,0-0.9-1.4-2-1.9c-1.2-0.5-3.6,1.4-3.8,2.4l-2.8,4l0.5,0.4l1.5-2.2c-1,2.4-2.4,5.3-1.4,6.8
				c1.4,2,4.4,3.9,5.2,3.6c0.8-0.3,0.7-6,0.7-6C226.8,316.5,229.7,314.5,229.7,314.5z"/>
			<g>
				<path class="st55" d="M229.7,314.5c0,0-1,1.9-1.5,3.5c-0.5,1.5-0.6,5.7-0.9,6c-0.3,0.3-2.9-1-3.3-2.6c-0.3-1.6,0.7-4.7,1.7-6.3
					c1-1.6,2-2.5,2-2.5S229.5,312.9,229.7,314.5z"/>
			</g>
			<path class="st55" d="M239.7,277.9c0,0-1.6,8.4-1.6,10.4c0,2-0.5,5.3-1.8,7.7c-1.3,2.4-6.9,19-7.4,21c-0.5,1.9-0.9,3.8-0.9,3.8
				s-2.8-1.3-2.8-3.1c0-1.8,2.4-16.9,2.9-19.9c0.4-3,3.9-18.2,3.9-18.2L239.7,277.9z"/>
			<path class="st13" d="M230.8,277.4c0,0,0.5,7,0.5,8.8c-0.1,1.8-0.9,6-0.9,7c0,1.1,0,23.8,0.9,26.5c0.9,2.7-2.5,0.9-2.5,0.9
				s-6-14.9-6-21.1c0-6.2,0.7-9.3,0.3-13.3c-0.4-3.9-2.3-9.1-2.3-9.1L230.8,277.4z"/>
			<path class="st56" d="M221.7,243.7c0,0-3.2,4-4.1,9.2c-0.9,5.3,1,15.3,1.7,18.1c0.6,2.5,1.7,10.6,1.7,11.5c0,0,10.9,1.2,19.1-1.4
				c0,0,0.8-11.3,1.2-16.1c0.5-4.8-1.9-21-1.9-21L221.7,243.7z"/>
			<path class="st54" d="M234.1,326.6c-3.9-3.4-2.9-6.9-2.9-6.9s-1.6-0.6-2.8-0.2c-1.3,0.3-1.9,3.3-1.4,4.3l0.4,5l0.6-0.1l-0.2-2.6
				c0.8,2.6,1.5,5.8,3.2,6.3c2.3,0.7,6,0.3,6.4-0.5C237.9,331,234.1,326.6,234.1,326.6z"/>
			<path class="st57" d="M236.4,206.7c0,0-1,5.7-0.1,7.7c0.8,1.9-4.4-2.3-4.4-2.3S234,205.8,236.4,206.7z"/>
			<path class="st57" d="M234.4,190.8c0,0-8.4-1.9-9.5,7.1c-1.1,9,2.7,10.1,0.2,16.2c-2.6,6.1,6.3-2,6.3-2L234.4,190.8z"/>
			<path class="st13" d="M233.7,190.7c2.2,0,6.9,1.2,7.5,6.9c0,0-0.2,1.5-0.6,2.7c-0.4,1.2,0.6,4.8,0.3,5c-0.3,0.2-1.5,0.4-1.5,0.4
				s-1.4,3.9-2.7,3.8c-1.4-0.1-6.5-1.3-8.8-6.2C225.5,198.3,225,190.8,233.7,190.7z"/>
			<g>
				<g>
					<path class="st54" d="M210.1,262c0,0,0.2-3.5,1.1-4c0.9-0.5,0.4,0.5,0.4,0.5s-0.5,2.5-0.6,3.5C211,262.1,210.1,262,210.1,262z"
						/>
				</g>
			</g>
			<g>
				<g>
					<path class="st13" d="M214.4,254.2c0,0,0.3,1.6,0.7,3.1c0.5,1.5,0.9,2,0.7,2.8c-0.1,0.6-0.9,1.1-1.1,0.9
						c-0.2-0.2-0.3-2.7-1.3-2.7c-1,0,0.3,3.1-0.3,2.9c-0.6-0.2-3-1.5-2.9-2.8c0.2-1.3,1.1-2.2,1-4.1c-0.1-1.7,0.5-2.4,0.5-2.4
						L214.4,254.2z"/>
				</g>
			</g>
			<g>
				<g>
					<path class="st54" d="M213.5,258.2c0,0,1.4,0.4,1.3,5.1l-1.6-0.3c0,0,0-2.6-0.4-4C212.8,259,212.9,258,213.5,258.2z"/>
				</g>
			</g>
			<g>
				<g>
					<polygon class="st21" points="219.3,264.3 207.1,260.8 207.1,275.9 219.3,283.2 					"/>
				</g>
			</g>
			<g>
				<polygon class="st21" points="219.3,283.2 217.8,283.5 205.9,276.2 206,260.9 207.1,260.8 				"/>
			</g>
			<path class="st56" d="M234.9,211.8c0,0,3.3,1.3,3.9,1.8c0.6,0.4,1.8,5.1,2,5.5c0.3,0.4,3.1,3.9,2.7,6.8c-0.3,2.2-1.6,3.4-2.4,4.3
				c-0.8,0.9-1.6,5.6-1.8,6.3c-0.3,0.7,0.6,9.9,0.6,9.9s-9.6,3.7-18.2-2.6c0,0,1.7-6.2,1.7-7.3c0-1.1-1.1-8.9-4.1-13.5
				c-3-4.6,0.5-9.5,2.8-10.1c2.3-0.6,6.7-2.2,6.7-2.2L234.9,211.8z"/>
			<path class="st56" d="M224.4,212.1c0,0-4.8-0.3-7.2,2.5c-2.4,2.8-2.3,6.1-2.9,7.6c-0.6,1.4-2,7.7-2.3,8.7c-0.3,1-0.6,6.7-1,11.2
				c-0.4,4.6-0.3,13.1-0.3,13.1l4.6-0.8c0,0,0.2-8.1,0.3-12.8c0.1-4.7,3.9-13,5.4-16.6C222.3,221.3,228.1,214.4,224.4,212.1z"/>
			<path class="st56" d="M238.3,213.3c0,0,2.1,0.1,3.1,2.2c1,2.1,1.4,3.8,1.7,4.4c0.3,0.5,3.9,7.4,4.1,9c0.2,1.5-0.1,4.3-2.1,5.1
				c-1.9,0.7-8.8,0.8-8.8,0.8s1.8-3.6,0.1-5.4c0,0,5-0.9,6.2-1C243.8,228.3,236.7,214.9,238.3,213.3z"/>
			<g>
				<polygon class="st54" points="226.8,219.3 236.1,241.1 247.8,235.6 239.2,214.6 				"/>
			</g>
			<g>
				<path class="st13" d="M232.1,230c0,0-1.3,0.3-1.7,0.4c-0.4,0.1,0.1,0.8,0.6,0.8C231.5,231.2,232.1,230,232.1,230z"/>
			</g>
			<g>
				<path class="st13" d="M233,236.2c0,0,0.6,0,0.8-0.2c0,0,0.4-0.3,0.8-0.5c0.1-0.1,0.2-0.1,0.3-0.1c0.3-0.1,0.9-0.3,1.4-0.7
					c0.5-0.4,2.3-2.1,2.3-2.1l-1.2-1.8l-0.9-1.4c0,0-3.8,0.1-4.4,0.4c-0.1,0-0.1,0.1-0.2,0.1c-0.4,0.3-0.6,0.8-0.8,1
					c-0.1,0.1-0.8,0.9-0.8,1.2c0.1,0.4,0.3,0.7,0.6,0.9c0,0,0.2,0.9,0.6,1.2c0,0,0.1,0.8,0.8,1.1C232.3,235.3,232.5,236.1,233,236.2
					z"/>
			</g>
			<path class="st56" d="M236.4,229.4c0,0,5.7-1,7.3-1.2c0,0,0.1-2-0.2-3.7c-0.3-1.7-1.7-4-1.7-4l2.9,2.7c0,0,2.4,4.6,2.4,5.7
				c0.1,1.1,0.3,2.7-1.1,4.4c-1.4,1.7-8.1,0.9-8.1,0.9S238.5,232.2,236.4,229.4z"/>
			<path class="st13" d="M234.6,208.6c0,0-0.2,0.5-0.4,1.4c-0.1,0.4-0.2,0.9-0.3,1.4c-0.3,1.4-0.5,3.1-0.1,4.2c0,0-3.1,1-5.3-3.4
				c0,0,1.2-4.6-0.1-7.4C227.1,201.9,234.6,208.6,234.6,208.6z"/>
			<path class="st57" d="M241.2,197.6c0,0-3.6,2.3-7.1,2.7c-3.5,0.4-5.4,5.7-5.4,5.7s-5.5-8.6-1.1-13.8
				C232.1,186.9,242.2,190.9,241.2,197.6z"/>
			<path class="st13" d="M232.7,200.1c0-0.7-0.7-1.7-1.9-0.8c-1.1,0.9,0.3,4.1,1.2,3.8C232.9,202.8,232.7,200.8,232.7,200.1z"/>
			<path class="st13" d="M235.1,211.9c0,0,1.4,4.3-1.9,4.2c-3.4,0-4.8-2.7-5.8-5c0,0,1.6-0.8,2.3-0.9
				C230.3,210.2,235.1,211.9,235.1,211.9z"/>
			<polygon class="st54" points="214.9,263 213.3,263.2 213.3,262.5 			"/>
			<path class="st54" d="M211,262l-0.9,0.1c0,0,0-0.3,0-0.4C210.2,261.6,211,261.9,211,262z"/>
			<g>
				<path class="st13" d="M231.3,319.7c0,0,0.4,2.2,1,3.7c0.6,1.5,3.1,4.9,3.1,5.3c-0.1,0.4-2.9,1.1-4.2,0c-1.3-1-2.4-4.1-2.7-6.1
					c-0.3-1.9-0.1-3.2-0.1-3.2S230,318.6,231.3,319.7z"/>
			</g>
			<path class="st15" d="M234.5,209c-0.1,0.4-0.3,0.9-0.4,1.4c-2.8-1.9-4.1-4.1-4.1-4.1C231.6,207.8,234.5,209,234.5,209z"/>
		</g>
		<path class="st10" d="M106.3,127.1h32.6c2.7,0,4.8,2.2,4.8,4.8v13.2c0,2.7-2.2,4.8-4.8,4.8h-32.6c-2.7,0-4.8-2.2-4.8-4.8V132
			C101.5,129.3,103.6,127.1,106.3,127.1z"/>
		<g>
			<g>
				<path class="st23" d="M79.7,241.7C79.7,241.7,79.7,241.7,79.7,241.7C79.8,241.7,79.8,241.7,79.7,241.7z"/>
			</g>
		</g>
		<g>
			<g>
				<g>
					<path class="st37" d="M59.6,238h31.2c0.9,0,1.6-0.7,1.6-1.6v-1c0-0.9-0.7-1.6-1.6-1.6H59.6c-0.9,0-1.6,0.7-1.6,1.6v1
						C58.1,237.3,58.8,238,59.6,238z"/>
				</g>
			</g>
		</g>
		<g>
			<g>
				<g>
					<path class="st37" d="M59.6,245.4h31.2c0.9,0,1.6-0.7,1.6-1.6v-1c0-0.9-0.7-1.6-1.6-1.6H59.6c-0.9,0-1.6,0.7-1.6,1.6v1
						C58.1,244.7,58.8,245.4,59.6,245.4z"/>
				</g>
			</g>
		</g>
		<g>
			<g>
				<g>
					<path class="st37" d="M59.6,252.8h31.2c0.9,0,1.6-0.7,1.6-1.6v-1c0-0.9-0.7-1.6-1.6-1.6H59.6c-0.9,0-1.6,0.7-1.6,1.6v1
						C58.1,252.1,58.8,252.8,59.6,252.8z"/>
				</g>
			</g>
		</g>
		<path class="st37" d="M112.1,218.1h-7.5c-1.6,0-2.9-1.3-2.9-2.9v-23c0-1.6,1.3-2.9,2.9-2.9h7.5c1.6,0,2.9,1.3,2.9,2.9v23
			C115,216.8,113.7,218.1,112.1,218.1z"/>
		<g>
			<g>
				<g>
					<g>
						<path class="st13" d="M32,269.8c0,0,0.5,0.8,0.6,1.5c0.1,0.5,0.5,1.3,0.7,1.8c0.2,0.4,0.8,2.5,0.9,3c0,0.2-0.5,1.6-0.4,2
							c0.1,0.4,0.3,1.3-0.1,1.4c-0.4,0.1-0.8-0.6-0.8-0.6s0,0.4-0.3,0.6c-0.6,0.3-1,0-1,0s-0.2,0.4-0.5,0.5c-0.7,0.1-1-0.1-1-0.1
							s-0.3,0.2-0.7,0.2c-0.6,0-0.8-0.5-0.8-0.5s-0.7,0.1-0.9-0.2s-0.2-0.7-0.3-1c-0.1-0.3,0-3.1,0.9-5.1c1-2-0.2-4-0.2-4L32,269.8z
							"/>
					</g>
				</g>
			</g>
			<g>
				<g>
					<path class="st58" d="M32.9,278.6c0,0,0.1-2.5-0.6-3c-0.7-0.5-0.7,0.4-0.7,0.4s0.1-0.9-0.6-1c-0.7-0.1-0.8,0.9-0.8,0.9
						s-0.1-0.7-0.9-0.5c-0.8,0.1-0.6,1-0.6,1s-0.7-0.9-1.2,0c-0.8,1.4,0,3.1,0,3.1s0.2,0.4,0.9,0.2c0,0,0.5,1,1.6,0.3
						c0,0,1.1,0.6,1.5-0.4C31.5,279.4,32.8,280,32.9,278.6z"/>
				</g>
			</g>
			<path class="st23" d="M40.5,233.7c0,0-4.3,14.3-5.7,19.6c-0.5,1.7-1.6,17.5-1.8,18.1c-0.2,0.6-5.6,1.5-5.6,1.5s0.7-19.8,0.7-20.9
				c0.1-1.1,6-23.2,7.7-24c1.3-0.6,2-0.1,3.6,1.1C41.7,230.9,40.5,233.7,40.5,233.7z"/>
			<g>
				
					<rect x="81.7" y="210.3" transform="matrix(0.8367 -0.5477 0.5477 0.8367 -101.1249 82.371)" class="st59" width="11.8" height="0.9"/>
			</g>
			<path class="st60" d="M93.8,210.9c0,0-0.1,0.6-0.3,0.8c0,0-0.3,0.4-0.5,0.7c-0.1,0.1-0.1,0.2-0.2,0.2c-0.1,0.2-0.3,0.8-0.8,1.3
				c-0.5,0.5-2.3,2-2.3,2l-1.6-1.3l-1.6-0.7c0,0,0.9-3.9,1.3-4.4c0,0,0.1-0.1,0.1-0.1c0.4-0.4,0.8-0.5,1-0.7
				c0.1-0.1,0.9-0.7,1.2-0.6c0.4,0.1,0.7,0.3,0.8,0.6c0,0,0.8,0.2,1.1,0.7c0,0,0.7,0.2,1,0.9C93,210.1,93.7,210.4,93.8,210.9z"/>
			<g>
				<g>
					<path class="st44" d="M37,331.4c0,0-0.4,2.7-0.4,3.1c0,0.4-4.4-0.2-4.4-0.2l-0.3-3.2C31.9,331.1,36.5,331,37,331.4z"/>
				</g>
			</g>
			<g>
				<g>
					<path class="st45" d="M36.6,334.2c0,0,1.4,1.6,2.7,2.4c1.3,0.7,3.4,1,4.2,1.7c0.6,0.5,2.1,2.8-3.4,2.8c-5.5,0-8.1,0.3-8.7-0.6
						c-0.6-0.9,0.8-6.5,0.8-6.5S33.5,334.5,36.6,334.2z"/>
				</g>
			</g>
			<g>
				<g>
					<path class="st44" d="M67.9,331.4c0,0-0.4,2.7-0.4,3.1c0,0.4-4.4-0.2-4.4-0.2l-0.3-3.2C62.7,331.1,67.3,331,67.9,331.4z"/>
				</g>
			</g>
			<g>
				<g>
					<path class="st45" d="M67.5,334.2c0,0,1.4,1.6,2.7,2.4c1.3,0.7,6.2,1.3,7,2c0.6,0.5,1.5,2.7-6.2,2.5c-5.5-0.1-8.1,0.3-8.7-0.6
						c-0.6-0.9,0.8-6.5,0.8-6.5S64.3,334.5,67.5,334.2z"/>
				</g>
			</g>
			<g>
				<g>
					<path class="st45" d="M40.6,261.6c0,0-4,6.4-3.7,12.2c0.3,5.8-1.5,12.2-2.1,18.2c-0.7,6.8-3.5,22.8-3.6,26.4
						c-0.1,3.6,0.4,15.2,0.4,15.2l5.6,0.1c0,0,4.7-28,5.9-30.9c1.2-2.9,7.2-23.2,7.4-25.5C50.7,275.1,40.6,261.6,40.6,261.6z"/>
				</g>
			</g>
			<g>
				<g>
					<path class="st45" d="M61.9,262.5c0,0,3.1,15.9,3.5,19.5c0.4,3.6,0.7,17.2,0.9,19.4c0.2,2.2,1.9,29,2.4,32.4h-7.1
						c0,0-5.4-19.5-5.4-28.8s-4.2-20.1-6.9-26.2c-2.7-6.1-8.9-6.2-10.6-17.6C38.6,261.3,59.6,258.9,61.9,262.5z"/>
				</g>
			</g>
			<g>
				<g>
					<path class="st13" d="M47.3,207.5c0,0,5.4-2,7.9,2.1c2.5,4.1,2.3,12.4-0.5,13.4c-2.7,1-6.9,0.5-8.3-2.1
						c-1.4-2.6-2.7-6.3-2.6-8.8C44,209.6,45.9,208.2,47.3,207.5z"/>
				</g>
			</g>
			<g>
				<g>
					<path class="st13" d="M54.2,223.2c0,0-0.2,1.5,0.1,2.2c0.4,0.7-7,0.7-7,0.7s-0.6-3.9-1.7-7.2C44.4,215.6,54.2,223.2,54.2,223.2
						z"/>
				</g>
			</g>
			<g>
				<g>
					<path class="st61" d="M45.6,218.9c0,0,0.5,0.8,2.6,0.5c2.1-0.3,4.6-3.1,5.5-3.4c0.9-0.3,0.9-0.8,0.9-0.8l0.5,0.8l0.9,0.1
						c0,0-0.8-2.5,0.4-3.5c1.3-1-1.3-8-8-5.7c0,0-5.1,1.4-5,4.3C43.7,214.1,44.4,217.5,45.6,218.9z"/>
				</g>
			</g>
			<g>
				<g>
					<path class="st38" d="M54.8,225.3c0,0,0-1.4-0.6-1.5c-0.6-0.1-6.9-0.7-7.7-0.4v1.6C46.5,225,48,225.9,54.8,225.3z"/>
				</g>
			</g>
			<g>
				<g>
					<path class="st13" d="M54.4,214.2c-0.1-0.5-1.4-1.9-1.8-0.4c-0.5,1.5,0.7,3.5,1.4,3.3C54.6,216.9,54.7,215.4,54.4,214.2z"/>
				</g>
			</g>
			<g>
				<g>
					<path class="st23" d="M65.2,227.4c-4.3-0.6-10.4-2.1-10.4-2.1l-8.3-0.3c0,0-7.6,1.7-10.6,3c-0.3,0.1-0.3,6.8-1.1,8.6l2.5,5.3
						c0,0,1.4,10.4,1.7,15.1c0.1,2.1-3,20-3,20s3.3,1,9,1.6c5.7,0.6,19.9-0.2,20-0.9c0.1-0.7-2.7-25-2.9-26.2
						c-0.2-1.9,0.7-12.2,0.7-12.2c1.3-1,12.8-6.4,16-9.1c0.8-0.7,4.4-4.2,5.4-5.4c3.6-4.2,6.5-7.8,6.9-8.6c0.4-0.4-3.9-2.8-4.3-2.9
						c-0.3-0.1-5.2,6.1-7,8.2c-0.8,0.9-4.3,3.4-4.3,3.4S67.9,227.6,65.2,227.4z"/>
				</g>
			</g>
			<g>
				<g>
					<path class="st61" d="M45.8,208c0,0-6.9,0.5-0.2,10.9L45.8,208z"/>
				</g>
			</g>
			<polygon class="st10" points="92.7,207.9 93.3,207 92.2,207.2 			"/>
		</g>
	</g>
	<linearGradient id="SVGID_7_" gradientUnits="userSpaceOnUse" x1="1.000000e-03" y1="91.2719" x2="56.8183" y2="91.2719">
		<stop  offset="0" style="stop-color:#9663FF"/>
		<stop  offset="0.3023" style="stop-color:#9E77FC"/>
		<stop  offset="0.7252" style="stop-color:#A78CF8"/>
		<stop  offset="1" style="stop-color:#AA94F7"/>
	</linearGradient>
	<path class="st62" d="M56.8,91.3c0,33.9-24.5,62.2-56.8,67.9V23.4C32.3,29.1,56.8,57.3,56.8,91.3z"/>
	<linearGradient id="SVGID_8_" gradientUnits="userSpaceOnUse" x1="340.0957" y1="339.1123" x2="435.9136" y2="339.1123">
		<stop  offset="0.178" style="stop-color:#8D6EFF"/>
		<stop  offset="1" style="stop-color:#BB9FFF"/>
	</linearGradient>
	<path class="st63" d="M435.9,366.6h-95.8c6.4-31.3,34.1-54.9,67.3-54.9c2.2,0,4.4,0.1,6.5,0.3c3.4,3.5,6.4,7.3,9.2,11.5
		C432.7,337.9,436.3,352.5,435.9,366.6z"/>
</g>
</svg>
