<svg xmlns="http://www.w3.org/2000/svg" viewBox="0 0 209.2 209.2"><path d="M73.3 26.2v-7.8c0-1.7 1.4-3.1 3.1-3.1h4.9c5.2 0 9.9-3.2 12.1-8C95.4 2.9 99.7 0 104.6 0s9.2 2.9 11.2 7.3c2.1 4.9 6.9 8 12.1 8h4.9c1.7 0 3.1 1.4 3.1 3.1v7.8c0 1.7-1.4 3.1-3.1 3.1h-56.3C74.7 29.3 73.3 27.9 73.3 26.2zM62.5 171.4h14.4v-14.4H62.5V171.4zM62.5 84.7h14.4V70.3H62.5V84.7zM176.9 46.6v142.6c0 11-9 20-20 20H52.3c-11 0-20-9-20-20V46.6c0-11 9-20 20-20h11.1c0.2 7 6 12.7 13.1 12.7h56.3c7.1 0 12.9-5.7 13.1-12.7h11.1C167.9 26.6 176.9 35.5 176.9 46.6zM94.9 77.4c0 2.8 2.2 5 5 5h45.1c2.8 0 5-2.2 5-5s-2.2-5-5-5H99.9C97.1 72.4 94.9 74.6 94.9 77.4zM94.9 121.3c0 2.8 2.2 5 5 5h40.1c2.8 0 5-2.2 5-5s-2.2-5-5-5H99.9C97.1 116.3 94.9 118.5 94.9 121.3zM87 152c0-2.8-2.2-5-5-5H57.5c-2.8 0-5 2.2-5 5v24.4c0 2.8 2.2 5 5 5h24.4c2.8 0 5-2.2 5-5V152zM87 108.6c0-2.8-2.2-5-5-5H57.5c-2.8 0-5 2.2-5 5v24.4c0 2.8 2.2 5 5 5h24.4c2.8 0 5-2.2 5-5V108.6zM87 65.3c0-2.8-2.2-5-5-5H57.5c-2.8 0-5 2.2-5 5v24.4c0 2.8 2.2 5 5 5h24.4c2.8 0 5-2.2 5-5V65.3zM152.5 165.1c0-2.8-2.2-5-5-5H99.9c-2.8 0-5 2.2-5 5s2.2 5 5 5h47.6C150.3 170.1 152.5 167.9 152.5 165.1zM62.5 128h14.4v-14.4H62.5V128z"/></svg>
