<svg xmlns="http://www.w3.org/2000/svg" viewBox="1 -18 512 511" ><path d="M376.9 204.5C302.4 204.5 241.8 265.1 241.8 339.6 241.8 414.1 302.4 474.7 376.9 474.7 451.4 474.7 512 414.1 512 339.6 512 265.1 451.4 204.5 376.9 204.5ZM433.8 356.2L375.9 356.2C367.2 356.2 360.2 349.2 360.2 340.6L360.2 282.7C360.2 274.1 367.2 267.1 375.9 267.1 384.5 267.1 391.5 274.1 391.5 282.7L391.5 325 433.8 325C442.4 325 449.4 332 449.4 340.6 449.4 349.2 442.4 356.2 433.8 356.2ZM433.8 356.2" class="a"/><path d="M174.1 122.1L205.7 108.8C209.6 107.2 213.9 107.2 217.8 108.8L249.4 122.1 249.4 0.5 174.1 0.5ZM174.1 122.1" class="a"/><path d="M376.9 173.2C393.1 173.2 408.7 175.6 423.6 179.9L423.6 38.9C423.6 17.7 406.3 0.5 385.2 0.5L280.7 0.5 280.7 145.6C280.7 150.8 278.1 155.7 273.7 158.6 271.1 160.3 268.1 161.2 265.1 161.2 263 161.2 261 160.8 259 160L211.8 140.2 164.5 160C159.7 162 154.2 161.4 149.8 158.6 145.5 155.7 142.9 150.8 142.9 145.6L142.9 0.5 38.4 0.5C17.2 0.5 0 17.7 0 38.9L0 385.7C0 406.8 17.2 424.1 38.4 424.1L233.7 424.1C219 399.3 210.6 370.4 210.6 339.6 210.6 247.9 285.2 173.2 376.9 173.2ZM376.9 173.2" class="a"/></svg>
